<svg width="25" height="28" fill="none" xmlns="http://www.w3.org/2000/svg"><path fill-rule="evenodd" clip-rule="evenodd" d="M13.5501 2.2326C14.5379 1.0264 16.2329.1 17.6831 0c.2431 1.649-.4284 3.264-1.3159 4.4058-.9487 1.2266-2.5859 2.1749-4.1704 2.1257-.289-1.5794.4522-3.2047 1.3533-4.299Zm4.4664 4.3007c1.9301 0 3.9738 1.044 5.4281 2.843-4.7676 2.5942-3.9952 9.352.8221 11.1615-.6623 1.4574-.9802 2.1072-1.8342 3.3982-1.1915 1.8007-2.8694 4.0445-4.9522 4.0603-.8562.0089-1.4179-.2467-2.0235-.5223-.7019-.3195-1.4629-.6658-2.8098-.6583-1.3394.0065-2.1125.3486-2.824.6634-.6213.2748-1.1956.5289-2.0589.5207-2.081-.0175-3.672-2.0424-4.8634-3.8431-3.3293-5.0325-3.6809-10.9408-1.6265-14.0833 1.4614-2.2316 3.7661-3.5366 5.9306-3.5366 1.1536 0 2.0833.3289 2.9693.6423.8064.2852 1.5766.5576 2.4463.5576.8048 0 1.4665-.2487 2.1882-.52.8659-.3254 1.8182-.6834 3.2079-.6834Z" fill="#495567"/></svg>