<svg width="24" height="28" fill="none" xmlns="http://www.w3.org/2000/svg"><path fill-rule="evenodd" clip-rule="evenodd" d="M1.3522.237c.7248-.3493 1.5558-.3118 2.253.108l13.872 8.078-3.9732 3.9917L1.3523.2371ZM0 2.4215c0-.3716.0825-.7327.2358-1.0573l12.149 12.175L.2378 25.7437C.083 25.426 0 25.0702 0 24.697V2.4214ZM13.5056 14.662 1.3734 26.8517c.322.1491.6645.2141 1.0066.2141.4223 0 .8437-.101 1.2253-.3304L17.48 18.6452l-3.9743-3.9833Zm9.24-3.1712a.232.232 0 0 1 .0148.0089c.7163.4346 1.144 1.1948 1.144 2.0332 0 .8384-.4277 1.5986-1.144 2.0336l-3.8638 2.2525-4.2724-4.2814 4.2698-4.2898 3.8516 2.243Z" fill="#495567"/></svg>