<svg width="39" height="48" fill="none" xmlns="http://www.w3.org/2000/svg"><path fill-rule="evenodd" clip-rule="evenodd" d="M24.7996 0H4.0106C1.804.0028.0157 1.791.0129 3.9979v39.9786c.0028 2.2069 1.791 3.9951 3.9979 3.9979H24V46.544a18.1781 18.1781 0 0 1 3.064-10.1194.7994.7994 0 0 0-.1-1.0091l-5.597-5.597a2.5938 2.5938 0 0 1-.7554-1.9612 2.5942 2.5942 0 0 1 .9457-1.8768c1.0896-.8329 2.6306-.714 3.5797.2757l7.8926 7.8928 1.1306-1.1306-5.3627-5.3643V3.9979C28.7947 1.791 27.0064.0028 24.7996 0Zm2.3987 26.0549-.9307-.9307c-1.534-1.5672-4.0011-1.7305-5.7281-.3786a4.1935 4.1935 0 0 0-1.5256 3.0346 4.1936 4.1936 0 0 0 1.2225 3.1689l5.1413 5.1415a19.7692 19.7692 0 0 0-2.9712 10.2847H4.0107c-1.3245 0-2.3987-1.0743-2.3987-2.3988v-2.3987h19.9893v-1.5991H1.612V6.3966h25.5863v19.6583ZM1.612 4.7974h25.5863V3.998c0-1.3245-1.0742-2.3988-2.3987-2.3988H4.0106c-1.3244 0-2.3986 1.0743-2.3986 2.3988v.7995Zm29.543 13.8031-1.0782 1.1786 4.9036 4.4952a5.61 5.61 0 0 1 1.8128 4.1266v19.5735h1.5991V28.4009a7.2145 7.2145 0 0 0-2.3331-5.3054l-4.9042-4.495ZM4.8103 14.3923h3.1982c.8834 0 1.5992-.7158 1.5992-1.5991V9.5949c0-.8834-.7158-1.5992-1.5991-1.5992H4.8102c-.8834 0-1.5992.7159-1.5992 1.5992v3.1983c0 .8833.7158 1.5991 1.5992 1.5991Zm0-4.7974h3.1982v3.1983H4.8103V9.5949Zm11.194 4.7974H12.806c-.8833 0-1.5992-.7158-1.5992-1.5991V9.5949c0-.8834.7159-1.5992 1.5992-1.5992h3.1983c.8833 0 1.5991.7159 1.5991 1.5992v3.1983c0 .8833-.7158 1.5991-1.5991 1.5991Zm0-4.7974H12.806v3.1983h3.1983V9.5949Zm4.7974 4.7974H24c.8834 0 1.5992-.7158 1.5992-1.5991V9.5949c0-.8834-.7158-1.5992-1.5992-1.5992h-3.1983c-.8833 0-1.5991.7159-1.5991 1.5992v3.1983c0 .8833.7158 1.5991 1.5991 1.5991Zm0-4.7974H24v3.1983h-3.1983V9.5949ZM8.0085 22.388H4.8103c-.8834 0-1.5992-.7159-1.5992-1.5992v-3.1983c0-.8833.7158-1.5991 1.5992-1.5991h3.1982c.8834 0 1.5992.7158 1.5992 1.5991v3.1983c0 .8833-.7158 1.5992-1.5991 1.5992Zm0-4.7975H4.8103v3.1983h3.1982v-3.1983ZM4.8103 30.3838h3.1982c.8834 0 1.5992-.7158 1.5992-1.5992v-3.1982c0-.8834-.7158-1.5992-1.5991-1.5992H4.8102c-.8834 0-1.5992.7158-1.5992 1.5992v3.1982c0 .8834.7158 1.5992 1.5992 1.5992Zm0-4.7974h3.1982v3.1982H4.8103v-3.1982Zm11.194-3.1983H12.806c-.8833 0-1.5992-.7159-1.5992-1.5992v-3.1983c0-.8833.7159-1.5991 1.5992-1.5991h3.1983c.8833 0 1.5991.7158 1.5991 1.5991v3.1983c0 .8833-.7158 1.5992-1.5991 1.5992Zm0-4.7975H12.806v3.1983h3.1983v-3.1983Zm4.7974 4.7975H24c.8834 0 1.5992-.7159 1.5992-1.5992v-3.1983c0-.8833-.7158-1.5991-1.5992-1.5991h-3.1983c-.8833 0-1.5991.7158-1.5991 1.5991v3.1983c0 .8833.7158 1.5992 1.5991 1.5992Zm0-4.7975H24v3.1983h-3.1983v-3.1983Zm-4.7974 12.7932H12.806c-.8833 0-1.5992-.7158-1.5992-1.5992v-3.1982c0-.8834.7159-1.5992 1.5992-1.5992h3.1983c.8833 0 1.5991.7158 1.5991 1.5992v3.1982c0 .8834-.7158 1.5992-1.5991 1.5992Zm0-4.7974H12.806v3.1982h3.1983v-3.1982ZM4.8103 38.3795h3.1982c.8834 0 1.5992-.7158 1.5992-1.5991v-3.1983c0-.8833-.7158-1.5992-1.5991-1.5992H4.8102c-.8834 0-1.5992.7159-1.5992 1.5992v3.1983c0 .8833.7158 1.5991 1.5992 1.5991Zm0-4.7974h3.1982v3.1983H4.8103v-3.1983Zm11.194 4.7974H12.806c-.8833 0-1.5992-.7158-1.5992-1.5991v-3.1983c0-.8833.7159-1.5992 1.5992-1.5992h3.1983c.8833 0 1.5991.7159 1.5991 1.5992v3.1983c0 .8833-.7158 1.5991-1.5991 1.5991Zm0-4.7974H12.806v3.1983h3.1983v-3.1983Zm-.7996 9.5949h-1.5991v1.5991h1.5991V43.177Z" fill="#495567"/></svg>